<svg id="Revised" xmlns="http://www.w3.org/2000/svg" viewBox="0 0 30 30"><defs><style>.cls-1{fill:#000;}.cls-2{fill:#fff;}</style></defs><title>icon-twitter</title><circle class="cls-1" cx="15" cy="15" r="15"/><path class="cls-2" d="M2668,2665.32a6.06,6.06,0,0,1-1.74.48,3.05,3.05,0,0,0,1.33-1.68,6.06,6.06,0,0,1-1.93.73,3,3,0,0,0-5.24,2.07,3.1,3.1,0,0,0,.08.69,8.6,8.6,0,0,1-6.25-3.16,3,3,0,0,0-.41,1.52,3,3,0,0,0,1.35,2.52,3,3,0,0,1-1.37-.38v0a3,3,0,0,0,2.43,3,3.07,3.07,0,0,1-.8.1,3,3,0,0,1-.57-0.05,3,3,0,0,0,2.83,2.11,6.1,6.1,0,0,1-3.76,1.29,6.32,6.32,0,0,1-.72,0,8.62,8.62,0,0,0,13.27-7.26v-0.39a6.1,6.1,0,0,0,1.52-1.57h0Zm0,0" transform="translate(-2645.58 -2654.9)"/></svg>