<?xml version="1.0"?>
<svg xmlns="http://www.w3.org/2000/svg" height="512px" viewBox="0 0 480 480" width="512px" class=""><g><path d="m240 480c132.546875 0 240-107.453125 240-240s-107.453125-240-240-240-240 107.453125-240 240c.148438 132.484375 107.515625 239.851562 240 240zm0-464c123.710938 0 224 100.289062 224 224s-100.289062 224-224 224-224-100.289062-224-224c.140625-123.652344 100.347656-223.859375 224-224zm0 0" data-original="#000000" class="active-path" data-old_color="#000000" fill="#1E3264"/><path d="m240 376c45.769531-.152344 88.765625-21.964844 115.921875-58.808594 1.347656-1.839844 1.847656-4.167968 1.375-6.398437-9.296875-42.410157-40.683594-76.542969-82.167969-89.351563 23.644532-15.527344 34.292969-44.730468 26.1875-71.832031-8.101562-27.097656-33.03125-45.667969-61.316406-45.667969s-53.214844 18.570313-61.316406 45.667969c-8.105469 27.101563 2.542968 56.304687 26.1875 71.832031-41.476563 12.808594-72.863282 46.929688-82.167969 89.335938-.472656 2.230468.027344 4.558594 1.375 6.398437 27.152344 36.851563 70.148437 58.667969 115.921875 58.824219zm-48-208c0-26.507812 21.492188-48 48-48s48 21.492188 48 48-21.492188 48-48 48c-26.5-.027344-47.972656-21.5-48-48zm48 64c47.578125.199219 89.015625 32.519531 100.800781 78.617188-24.175781 31.152343-61.398437 49.382812-100.832031 49.382812-39.4375 0-76.65625-18.230469-100.832031-49.382812 11.789062-46.121094 53.261719-78.445313 100.863281-78.617188zm0 0" data-original="#000000" class="active-path" data-old_color="#000000" fill="#1E3264"/></g> </svg>
